<?xml version="1.0" encoding="UTF-8"?>
<svg version="1.1" id="Capa_1" xmlns="http://www.w3.org/2000/svg" xmlns:xlink="http://www.w3.org/1999/xlink" x="0px" y="0px"
	 width="120" height="100" viewBox="0 0 150 150" >
<g id="surface1">
<path style=" stroke:none;fill-rule:nonzero;fill:rgb(65.9%,0%,0%);fill-opacity:1;" d="M 56.871094 31.085938 C 56.835938 31.191406 56.613281 31.832031 56.382812 32.515625 C 56.152344 33.199219 55.882812 33.984375 55.789062 34.261719 C 55.695312 34.539062 55.523438 35.046875 55.40625 35.386719 C 55.128906 36.214844 54.886719 36.917969 54.636719 37.644531 C 54.527344 37.972656 54.351562 38.476562 54.257812 38.765625 C 54.15625 39.054688 53.996094 39.527344 53.898438 39.8125 C 53.800781 40.101562 53.699219 40.398438 53.675781 40.46875 C 53.65625 40.539062 53.492188 41.023438 53.3125 41.546875 C 53.132812 42.066406 52.988281 42.496094 52.988281 42.503906 C 52.988281 42.507812 53.734375 42.511719 54.644531 42.507812 L 56.300781 42.5 L 56.566406 41.582031 C 56.714844 41.074219 56.855469 40.582031 56.882812 40.492188 L 56.933594 40.324219 L 58.539062 40.328125 L 60.148438 40.339844 L 60.214844 40.597656 C 60.300781 40.914062 60.628906 42.113281 60.695312 42.34375 L 60.746094 42.515625 L 62.507812 42.515625 C 63.472656 42.515625 64.265625 42.507812 64.265625 42.492188 C 64.265625 42.449219 64.007812 41.675781 62.824219 38.128906 C 61.527344 34.246094 60.738281 31.886719 60.546875 31.296875 L 60.414062 30.902344 L 56.9375 30.902344 Z M 58.949219 35.757812 C 59.125 36.378906 59.34375 37.125 59.429688 37.417969 L 59.582031 37.953125 L 58.554688 37.960938 C 57.988281 37.964844 57.523438 37.964844 57.515625 37.953125 C 57.507812 37.949219 57.59375 37.648438 57.710938 37.285156 C 57.824219 36.925781 57.984375 36.410156 58.066406 36.144531 C 58.476562 34.808594 58.570312 34.539062 58.59375 34.582031 C 58.609375 34.605469 58.769531 35.136719 58.949219 35.757812 Z M 58.949219 35.757812 "/>
<path style=" stroke:none;fill-rule:nonzero;fill:rgb(65.9%,0%,0%);fill-opacity:1;" d="M 28.703125 32.355469 L 28.703125 33.675781 L 31.011719 33.683594 L 33.320312 33.695312 L 32.976562 34.160156 C 32.785156 34.417969 32.484375 34.824219 32.308594 35.066406 C 32.136719 35.304688 31.746094 35.832031 31.445312 36.242188 C 31.144531 36.648438 30.679688 37.28125 30.410156 37.644531 C 30.144531 38.007812 29.703125 38.601562 29.433594 38.96875 C 29.167969 39.332031 28.847656 39.765625 28.730469 39.933594 L 28.511719 40.230469 L 28.511719 42.515625 L 37.324219 42.515625 L 37.324219 39.871094 L 35 39.871094 C 33.722656 39.871094 32.675781 39.863281 32.675781 39.855469 C 32.675781 39.828125 34.085938 37.898438 35.480469 36.015625 C 35.625 35.820312 35.929688 35.40625 36.15625 35.097656 C 36.382812 34.785156 36.722656 34.324219 36.914062 34.066406 L 37.257812 33.601562 L 37.257812 31.03125 L 28.703125 31.03125 Z M 28.703125 32.355469 "/>
<path style=" stroke:none;fill-rule:nonzero;fill:rgb(65.9%,0%,0%);fill-opacity:1;" d="M 38.316406 36.773438 L 38.316406 42.515625 L 41.648438 42.515625 L 41.648438 31.03125 L 38.316406 31.03125 Z M 38.316406 36.773438 "/>
<path style=" stroke:none;fill-rule:nonzero;fill:rgb(65.9%,0%,0%);fill-opacity:1;" d="M 42.832031 36.773438 L 42.832031 42.515625 L 45.554688 42.515625 L 45.5625 39.359375 L 45.570312 36.210938 L 46.882812 38.195312 C 47.601562 39.285156 48.542969 40.703125 48.964844 41.34375 L 49.738281 42.515625 L 52.507812 42.515625 L 52.507812 31.03125 L 49.722656 31.03125 L 49.714844 34.25 L 49.703125 37.46875 L 49.59375 37.289062 C 49.53125 37.195312 49.171875 36.640625 48.796875 36.066406 C 48.417969 35.488281 48.019531 34.878906 47.910156 34.710938 C 47.582031 34.207031 47.140625 33.519531 46.515625 32.566406 C 46.1875 32.066406 45.832031 31.519531 45.71875 31.34375 L 45.519531 31.03125 L 42.832031 31.03125 Z M 42.832031 36.773438 "/>
<path style=" stroke:none;fill-rule:nonzero;fill:rgb(65.9%,0%,0%);fill-opacity:1;" d="M 65.195312 36.773438 L 65.195312 42.515625 L 68.527344 42.515625 L 68.53125 40.203125 L 68.542969 37.894531 L 68.84375 38.40625 C 69.007812 38.6875 69.210938 39.035156 69.296875 39.175781 C 69.449219 39.441406 70.066406 40.496094 70.824219 41.78125 L 71.253906 42.515625 L 73.257812 42.515625 C 74.960938 42.515625 75.253906 42.507812 75.230469 42.472656 C 75.21875 42.445312 75.058594 42.195312 74.875 41.914062 C 74.695312 41.632812 74.183594 40.84375 73.746094 40.160156 C 73.304688 39.476562 72.859375 38.785156 72.753906 38.628906 C 71.621094 36.863281 71.410156 36.53125 71.417969 36.5 C 71.429688 36.480469 71.726562 36.050781 72.085938 35.546875 C 72.441406 35.042969 73.125 34.078125 73.597656 33.402344 C 74.074219 32.730469 74.617188 31.957031 74.804688 31.695312 C 74.996094 31.425781 75.175781 31.171875 75.203125 31.121094 L 75.261719 31.03125 L 71.425781 31.03125 L 71.375 31.121094 C 71.285156 31.269531 71.125 31.527344 70.59375 32.371094 C 70.3125 32.8125 69.828125 33.589844 69.511719 34.097656 C 68.765625 35.285156 68.550781 35.617188 68.535156 35.601562 C 68.53125 35.597656 68.527344 34.566406 68.527344 33.308594 L 68.527344 31.03125 L 65.195312 31.03125 Z M 65.195312 36.773438 "/>
<path style=" stroke:none;fill-rule:nonzero;fill:rgb(65.9%,0%,0%);fill-opacity:1;" d="M 75.863281 36.773438 L 75.863281 42.515625 L 83.457031 42.515625 L 83.457031 39.871094 L 79.195312 39.871094 L 79.195312 38.066406 L 83.039062 38.066406 L 83.03125 36.730469 L 83.023438 35.402344 L 79.195312 35.386719 L 79.195312 33.804688 L 81.269531 33.800781 L 83.34375 33.789062 L 83.359375 31.03125 L 75.863281 31.03125 Z M 75.863281 36.773438 "/>
<path style=" stroke:none;fill-rule:nonzero;fill:rgb(0%,0%,0%);fill-opacity:1;" d="M 74.472656 46.132812 C 74.25 46.1875 73.980469 46.359375 73.765625 46.582031 C 73.546875 46.8125 73.507812 46.910156 73.625 46.96875 C 73.6875 47.003906 73.691406 47.023438 73.679688 47.769531 C 73.675781 48.191406 73.683594 48.550781 73.695312 48.574219 C 73.726562 48.625 73.867188 48.621094 73.898438 48.570312 C 73.910156 48.550781 73.925781 48.429688 73.925781 48.304688 L 73.925781 48.082031 L 74.03125 48.070312 C 74.230469 48.050781 74.683594 48.242188 75.074219 48.511719 C 75.1875 48.589844 75.25 48.613281 75.371094 48.613281 C 75.558594 48.613281 75.734375 48.515625 75.734375 48.417969 C 75.734375 48.355469 75.722656 48.347656 75.632812 48.367188 C 75.332031 48.433594 75.335938 48.433594 75.085938 48.28125 C 74.960938 48.199219 74.785156 48.101562 74.703125 48.0625 C 74.617188 48.019531 74.550781 47.980469 74.550781 47.972656 C 74.550781 47.957031 74.675781 47.894531 74.820312 47.824219 C 75.160156 47.667969 75.410156 47.449219 75.507812 47.230469 C 75.65625 46.878906 75.625 46.578125 75.417969 46.375 C 75.222656 46.179688 74.757812 46.0625 74.472656 46.132812 Z M 75.046875 46.382812 C 75.339844 46.523438 75.4375 46.75 75.335938 47.066406 C 75.203125 47.457031 74.71875 47.753906 74.046875 47.855469 L 73.910156 47.878906 L 73.910156 46.785156 L 74.0625 46.636719 C 74.382812 46.339844 74.746094 46.246094 75.046875 46.382812 Z M 75.046875 46.382812 "/>
<path style=" stroke:none;fill-rule:nonzero;fill:rgb(0%,0%,0%);fill-opacity:1;" d="M 58.269531 46.175781 C 57.941406 46.265625 57.738281 46.441406 57.589844 46.773438 C 57.402344 47.195312 57.410156 47.546875 57.621094 47.96875 C 57.808594 48.34375 58.089844 48.546875 58.46875 48.574219 C 58.894531 48.601562 59.285156 48.421875 59.464844 48.109375 C 59.617188 47.835938 59.519531 47.738281 59.328125 47.972656 C 59.078125 48.292969 58.914062 48.386719 58.609375 48.386719 C 58.226562 48.382812 57.941406 48.195312 57.773438 47.832031 C 57.695312 47.65625 57.683594 47.59375 57.683594 47.339844 C 57.683594 47.097656 57.699219 47.019531 57.769531 46.871094 C 57.859375 46.679688 57.980469 46.53125 58.128906 46.4375 C 58.269531 46.347656 58.710938 46.328125 58.902344 46.402344 C 59.085938 46.472656 59.277344 46.640625 59.386719 46.828125 C 59.4375 46.917969 59.484375 46.96875 59.519531 46.960938 C 59.589844 46.949219 59.601562 46.871094 59.554688 46.609375 C 59.519531 46.398438 59.511719 46.382812 59.445312 46.398438 C 59.398438 46.414062 59.308594 46.382812 59.191406 46.320312 C 58.859375 46.140625 58.570312 46.09375 58.269531 46.175781 Z M 58.269531 46.175781 "/>
<path style=" stroke:none;fill-rule:nonzero;fill:rgb(0%,0%,0%);fill-opacity:1;" d="M 77.527344 46.167969 C 77.488281 46.203125 77.484375 46.40625 77.496094 47.523438 C 77.511719 48.792969 77.515625 48.835938 77.578125 48.925781 C 77.632812 48.996094 77.671875 49.015625 77.773438 49.015625 C 77.882812 49.015625 77.898438 49.007812 77.898438 48.9375 C 77.898438 48.898438 77.867188 48.84375 77.832031 48.824219 C 77.796875 48.804688 77.757812 48.773438 77.746094 48.757812 C 77.730469 48.738281 77.722656 48.15625 77.722656 47.453125 C 77.722656 46.15625 77.722656 46.132812 77.605469 46.128906 C 77.589844 46.128906 77.550781 46.148438 77.527344 46.167969 Z M 77.527344 46.167969 "/>
<path style=" stroke:none;fill-rule:nonzero;fill:rgb(0%,0%,0%);fill-opacity:1;" d="M 79.890625 46.152344 C 79.875 46.160156 79.867188 46.671875 79.867188 47.277344 C 79.867188 47.980469 79.855469 48.390625 79.835938 48.402344 C 79.769531 48.445312 79.804688 48.546875 79.886719 48.566406 C 80.234375 48.65625 80.980469 48.339844 81.207031 48 C 81.472656 47.601562 81.390625 46.964844 81.050781 46.722656 C 80.945312 46.648438 80.875 46.628906 80.703125 46.621094 C 80.519531 46.609375 80.46875 46.621094 80.308594 46.707031 L 80.125 46.804688 L 80.125 46.503906 C 80.125 46.316406 80.109375 46.195312 80.085938 46.167969 C 80.042969 46.125 79.925781 46.117188 79.890625 46.152344 Z M 80.859375 46.871094 C 81.0625 46.972656 81.148438 47.132812 81.148438 47.394531 C 81.148438 47.664062 81.066406 47.859375 80.878906 48.023438 C 80.730469 48.152344 80.425781 48.304688 80.246094 48.335938 L 80.125 48.359375 L 80.125 47.128906 L 80.25 47 C 80.445312 46.804688 80.648438 46.761719 80.859375 46.871094 Z M 80.859375 46.871094 "/>
<path style=" stroke:none;fill-rule:nonzero;fill:rgb(0%,0%,0%);fill-opacity:1;" d="M 81.535156 46.15625 C 81.5 46.179688 81.496094 46.414062 81.496094 47.449219 C 81.5 48.257812 81.515625 48.75 81.539062 48.8125 C 81.59375 48.984375 81.65625 49.035156 81.785156 49.027344 C 81.882812 49.015625 81.902344 49.003906 81.902344 48.9375 C 81.902344 48.898438 81.871094 48.84375 81.835938 48.824219 C 81.800781 48.804688 81.765625 48.773438 81.746094 48.757812 C 81.734375 48.738281 81.726562 48.15625 81.730469 47.453125 C 81.730469 46.425781 81.722656 46.179688 81.6875 46.15625 C 81.632812 46.121094 81.59375 46.121094 81.535156 46.15625 Z M 81.535156 46.15625 "/>
<path style=" stroke:none;fill-rule:nonzero;fill:rgb(0%,0%,0%);fill-opacity:1;" d="M 77.984375 46.222656 C 77.957031 46.234375 77.945312 46.289062 77.953125 46.34375 C 77.957031 46.417969 77.976562 46.433594 78.039062 46.433594 C 78.136719 46.433594 78.199219 46.34375 78.148438 46.265625 C 78.109375 46.199219 78.042969 46.183594 77.984375 46.222656 Z M 77.984375 46.222656 "/>
<path style=" stroke:none;fill-rule:nonzero;fill:rgb(0%,0%,0%);fill-opacity:1;" d="M 67.128906 46.335938 C 67.121094 46.359375 67.117188 46.871094 67.125 47.472656 C 67.132812 48.566406 67.132812 48.566406 67.210938 48.726562 C 67.308594 48.921875 67.488281 49.03125 67.617188 48.972656 C 67.667969 48.949219 67.695312 48.910156 67.695312 48.851562 C 67.695312 48.785156 67.667969 48.757812 67.570312 48.71875 C 67.496094 48.691406 67.425781 48.636719 67.410156 48.589844 C 67.386719 48.542969 67.371094 48.226562 67.371094 47.695312 L 67.371094 46.871094 L 67.609375 46.871094 C 67.855469 46.871094 67.90625 46.839844 67.867188 46.726562 C 67.851562 46.691406 67.789062 46.675781 67.605469 46.675781 L 67.363281 46.675781 L 67.386719 46.527344 C 67.398438 46.433594 67.390625 46.359375 67.371094 46.335938 C 67.320312 46.277344 67.152344 46.277344 67.128906 46.335938 Z M 67.128906 46.335938 "/>
<path style=" stroke:none;fill-rule:nonzero;fill:rgb(0%,0%,0%);fill-opacity:1;" d="M 71.195312 46.34375 C 71.183594 46.378906 71.175781 46.898438 71.183594 47.5 C 71.203125 48.597656 71.203125 48.597656 71.28125 48.742188 C 71.410156 48.972656 71.691406 49.070312 71.746094 48.90625 C 71.773438 48.8125 71.730469 48.738281 71.628906 48.71875 C 71.449219 48.683594 71.441406 48.648438 71.441406 47.71875 L 71.441406 46.875 L 71.675781 46.863281 C 71.898438 46.855469 71.90625 46.851562 71.914062 46.765625 L 71.925781 46.675781 L 71.433594 46.675781 L 71.449219 46.535156 C 71.457031 46.457031 71.453125 46.371094 71.433594 46.34375 C 71.398438 46.269531 71.226562 46.273438 71.195312 46.34375 Z M 71.195312 46.34375 "/>
<path style=" stroke:none;fill-rule:nonzero;fill:rgb(0%,0%,0%);fill-opacity:1;" d="M 63.929688 46.613281 C 63.917969 46.632812 63.910156 47.203125 63.910156 47.878906 L 63.910156 49.113281 L 64.121094 49.113281 L 64.121094 48.574219 L 64.378906 48.472656 C 64.523438 48.417969 64.703125 48.328125 64.785156 48.28125 C 64.996094 48.15625 65.242188 47.871094 65.308594 47.671875 C 65.390625 47.441406 65.382812 47.140625 65.300781 46.980469 C 65.21875 46.824219 65.003906 46.65625 64.847656 46.625 C 64.6875 46.59375 64.410156 46.65625 64.257812 46.757812 C 64.195312 46.804688 64.132812 46.839844 64.121094 46.839844 C 64.113281 46.839844 64.113281 46.792969 64.128906 46.738281 C 64.140625 46.671875 64.132812 46.628906 64.101562 46.609375 C 64.042969 46.570312 63.953125 46.574219 63.929688 46.613281 Z M 64.8125 46.839844 C 65.011719 46.894531 65.164062 47.121094 65.164062 47.371094 C 65.164062 47.511719 65.019531 47.789062 64.859375 47.941406 C 64.734375 48.066406 64.375 48.265625 64.195312 48.308594 L 64.105469 48.328125 L 64.105469 47.167969 L 64.238281 47.035156 C 64.316406 46.953125 64.425781 46.882812 64.519531 46.859375 C 64.699219 46.800781 64.679688 46.800781 64.8125 46.839844 Z M 64.8125 46.839844 "/>
<path style=" stroke:none;fill-rule:nonzero;fill:rgb(0%,0%,0%);fill-opacity:1;" d="M 69.609375 46.601562 C 69.558594 46.617188 69.550781 46.675781 69.546875 47.300781 C 69.546875 47.675781 69.539062 47.964844 69.527344 47.941406 C 69.496094 47.859375 69.390625 47.90625 69.289062 48.046875 C 68.996094 48.433594 68.546875 48.484375 68.238281 48.15625 C 68.113281 48.027344 68.066406 47.867188 68.085938 47.644531 C 68.117188 47.304688 68.078125 47.324219 68.832031 47.324219 L 69.488281 47.324219 L 69.488281 47.246094 C 69.488281 46.949219 69.15625 46.664062 68.765625 46.621094 C 68.386719 46.582031 68.027344 46.917969 67.898438 47.417969 C 67.816406 47.746094 67.898438 48.117188 68.101562 48.328125 C 68.277344 48.515625 68.65625 48.613281 68.960938 48.546875 C 69.121094 48.511719 69.171875 48.484375 69.316406 48.335938 C 69.410156 48.238281 69.496094 48.121094 69.511719 48.070312 C 69.527344 48.007812 69.539062 48.058594 69.550781 48.257812 C 69.566406 48.515625 69.570312 48.53125 69.644531 48.542969 C 69.6875 48.546875 69.734375 48.539062 69.75 48.523438 C 69.769531 48.503906 69.777344 48.226562 69.777344 47.859375 C 69.773438 47.15625 69.785156 47.101562 69.972656 46.953125 C 70.222656 46.769531 70.566406 46.777344 70.722656 46.976562 C 70.953125 47.289062 70.953125 47.621094 70.707031 48.113281 C 70.589844 48.351562 70.578125 48.507812 70.679688 48.546875 C 70.828125 48.601562 70.929688 48.507812 70.863281 48.382812 C 70.835938 48.332031 70.855469 48.265625 70.964844 48.039062 C 71.09375 47.777344 71.101562 47.742188 71.105469 47.484375 C 71.105469 47.269531 71.089844 47.175781 71.035156 47.054688 C 70.808594 46.566406 70.3125 46.445312 69.875 46.773438 L 69.761719 46.855469 L 69.785156 46.777344 C 69.808594 46.6875 69.757812 46.578125 69.703125 46.582031 C 69.679688 46.585938 69.636719 46.59375 69.609375 46.601562 Z M 68.9375 46.855469 C 69.074219 46.914062 69.199219 47.027344 69.199219 47.085938 C 69.199219 47.121094 69.101562 47.128906 68.734375 47.128906 C 68.410156 47.128906 68.269531 47.121094 68.269531 47.09375 C 68.269531 47.035156 68.484375 46.84375 68.566406 46.828125 C 68.714844 46.800781 68.820312 46.804688 68.9375 46.855469 Z M 68.9375 46.855469 "/>
<path style=" stroke:none;fill-rule:nonzero;fill:rgb(0%,0%,0%);fill-opacity:1;" d="M 60.101562 46.660156 C 59.804688 46.796875 59.589844 47.148438 59.566406 47.546875 C 59.546875 47.832031 59.582031 47.992188 59.710938 48.195312 C 59.894531 48.488281 60.328125 48.640625 60.679688 48.539062 C 61.066406 48.425781 61.273438 48.152344 61.308594 47.710938 C 61.34375 47.304688 61.199219 46.972656 60.890625 46.761719 C 60.726562 46.644531 60.691406 46.632812 60.460938 46.621094 C 60.285156 46.617188 60.179688 46.625 60.101562 46.660156 Z M 60.773438 46.929688 C 61.074219 47.113281 61.1875 47.589844 61.019531 48 C 60.960938 48.140625 60.921875 48.195312 60.792969 48.273438 C 60.660156 48.355469 60.601562 48.371094 60.441406 48.367188 C 60.085938 48.363281 59.832031 48.15625 59.75 47.804688 C 59.660156 47.425781 59.917969 46.953125 60.28125 46.839844 C 60.417969 46.792969 60.613281 46.828125 60.773438 46.929688 Z M 60.773438 46.929688 "/>
<path style=" stroke:none;fill-rule:nonzero;fill:rgb(0%,0%,0%);fill-opacity:1;" d="M 61.367188 46.632812 C 61.332031 46.644531 61.335938 48.460938 61.367188 48.519531 C 61.390625 48.558594 61.53125 48.558594 61.558594 48.511719 C 61.570312 48.492188 61.582031 48.199219 61.585938 47.859375 C 61.589844 47.253906 61.59375 47.238281 61.671875 47.136719 C 61.84375 46.898438 62.171875 46.789062 62.375 46.894531 C 62.671875 47.046875 62.707031 47.351562 62.503906 48.007812 C 62.433594 48.234375 62.386719 48.441406 62.394531 48.46875 C 62.425781 48.550781 62.527344 48.585938 62.601562 48.546875 C 62.65625 48.519531 62.667969 48.492188 62.652344 48.410156 C 62.644531 48.34375 62.675781 48.191406 62.75 47.972656 C 62.851562 47.660156 62.863281 47.609375 62.847656 47.359375 C 62.839844 47.207031 62.824219 47.058594 62.8125 47.03125 C 62.777344 46.949219 62.996094 46.824219 63.179688 46.828125 C 63.382812 46.832031 63.484375 46.902344 63.570312 47.089844 C 63.679688 47.332031 63.664062 47.625 63.523438 47.984375 C 63.371094 48.363281 63.363281 48.40625 63.382812 48.480469 C 63.410156 48.566406 63.480469 48.585938 63.578125 48.542969 C 63.640625 48.511719 63.652344 48.484375 63.648438 48.375 C 63.648438 48.296875 63.699219 48.105469 63.765625 47.917969 C 63.867188 47.636719 63.882812 47.566406 63.871094 47.371094 C 63.839844 46.761719 63.324219 46.433594 62.820312 46.703125 L 62.648438 46.792969 L 62.523438 46.714844 C 62.433594 46.65625 62.34375 46.628906 62.199219 46.621094 C 61.976562 46.601562 61.851562 46.652344 61.671875 46.820312 L 61.566406 46.917969 L 61.582031 46.804688 C 61.59375 46.734375 61.585938 46.671875 61.566406 46.648438 C 61.53125 46.613281 61.429688 46.601562 61.367188 46.632812 Z M 61.367188 46.632812 "/>
<path style=" stroke:none;fill-rule:nonzero;fill:rgb(0%,0%,0%);fill-opacity:1;" d="M 66.03125 46.660156 C 65.566406 46.871094 65.304688 47.511719 65.480469 48.015625 C 65.554688 48.246094 65.769531 48.460938 65.972656 48.523438 C 66.183594 48.585938 66.535156 48.570312 66.683594 48.492188 C 66.871094 48.398438 67.085938 48.117188 67.085938 47.972656 C 67.085938 47.851562 66.984375 47.898438 66.785156 48.109375 C 66.5 48.402344 66.277344 48.453125 65.960938 48.285156 C 65.714844 48.164062 65.589844 47.875 65.644531 47.582031 C 65.699219 47.300781 65.632812 47.324219 66.367188 47.324219 C 66.910156 47.324219 67.027344 47.316406 67.039062 47.273438 C 67.070312 47.203125 66.988281 46.992188 66.894531 46.894531 C 66.695312 46.675781 66.257812 46.558594 66.03125 46.660156 Z M 66.488281 46.851562 C 66.597656 46.898438 66.765625 47.046875 66.765625 47.097656 C 66.765625 47.117188 66.570312 47.128906 66.300781 47.128906 C 65.976562 47.128906 65.835938 47.121094 65.835938 47.09375 C 65.835938 47.035156 66.050781 46.84375 66.128906 46.828125 C 66.277344 46.800781 66.382812 46.804688 66.488281 46.851562 Z M 66.488281 46.851562 "/>
<path style=" stroke:none;fill-rule:nonzero;fill:rgb(0%,0%,0%);fill-opacity:1;" d="M 76.316406 46.660156 C 76.101562 46.757812 75.960938 46.898438 75.839844 47.15625 C 75.726562 47.382812 75.71875 47.417969 75.722656 47.675781 C 75.722656 47.878906 75.742188 47.992188 75.789062 48.101562 C 75.871094 48.285156 76.078125 48.464844 76.273438 48.519531 C 76.492188 48.585938 76.8125 48.574219 76.96875 48.492188 C 77.152344 48.398438 77.367188 48.117188 77.367188 47.972656 C 77.367188 47.847656 77.285156 47.882812 77.082031 48.097656 C 76.78125 48.402344 76.566406 48.453125 76.242188 48.285156 C 76 48.164062 75.871094 47.875 75.925781 47.582031 C 75.980469 47.300781 75.917969 47.324219 76.652344 47.324219 C 77.195312 47.324219 77.3125 47.316406 77.324219 47.273438 C 77.351562 47.203125 77.273438 46.992188 77.179688 46.894531 C 76.976562 46.671875 76.546875 46.554688 76.316406 46.660156 Z M 76.75 46.84375 C 76.84375 46.878906 77.046875 47.058594 77.046875 47.101562 C 77.046875 47.117188 76.839844 47.128906 76.582031 47.128906 C 76.066406 47.128906 76.027344 47.109375 76.230469 46.945312 C 76.398438 46.808594 76.574219 46.773438 76.75 46.84375 Z M 76.75 46.84375 "/>
<path style=" stroke:none;fill-rule:nonzero;fill:rgb(0%,0%,0%);fill-opacity:1;" d="M 77.933594 46.640625 C 77.921875 46.65625 77.914062 47.082031 77.914062 47.597656 C 77.90625 48.417969 77.914062 48.527344 77.957031 48.554688 C 77.988281 48.570312 78.03125 48.570312 78.058594 48.554688 C 78.105469 48.527344 78.109375 48.410156 78.109375 47.59375 C 78.109375 47.082031 78.105469 46.652344 78.105469 46.636719 C 78.105469 46.601562 77.953125 46.605469 77.933594 46.640625 Z M 77.933594 46.640625 "/>
<path style=" stroke:none;fill-rule:nonzero;fill:rgb(0%,0%,0%);fill-opacity:1;" d="M 78.9375 46.675781 C 78.84375 46.710938 78.714844 46.734375 78.65625 46.730469 C 78.554688 46.726562 78.542969 46.734375 78.46875 46.917969 C 78.34375 47.230469 78.378906 47.269531 78.621094 47.082031 C 78.808594 46.945312 78.992188 46.875 79.234375 46.855469 C 79.402344 46.839844 79.421875 46.84375 79.355469 46.875 C 78.792969 47.128906 78.683594 47.199219 78.492188 47.40625 C 78.386719 47.523438 78.285156 47.671875 78.261719 47.730469 C 78.207031 47.898438 78.238281 48.195312 78.324219 48.3125 C 78.425781 48.457031 78.660156 48.566406 78.875 48.566406 C 79.039062 48.566406 79.105469 48.542969 79.523438 48.328125 C 79.539062 48.324219 79.546875 48.367188 79.546875 48.429688 C 79.546875 48.546875 79.589844 48.585938 79.703125 48.558594 C 79.769531 48.542969 79.769531 48.527344 79.769531 47.71875 C 79.769531 46.785156 79.765625 46.75 79.546875 46.664062 C 79.378906 46.597656 79.15625 46.601562 78.9375 46.675781 Z M 79.546875 47.546875 L 79.546875 48.058594 L 79.394531 48.15625 C 79.171875 48.300781 79.023438 48.355469 78.859375 48.355469 C 78.535156 48.355469 78.359375 48.136719 78.433594 47.835938 C 78.476562 47.660156 78.761719 47.363281 79.003906 47.242188 C 79.164062 47.160156 79.464844 47.042969 79.523438 47.035156 C 79.539062 47.03125 79.546875 47.265625 79.546875 47.546875 Z M 79.546875 47.546875 "/>
<path style=" stroke:none;fill-rule:nonzero;fill:rgb(0%,0%,0%);fill-opacity:1;" d="M 82.429688 46.664062 C 82.261719 46.738281 82.085938 46.929688 81.976562 47.144531 C 81.894531 47.304688 81.871094 47.390625 81.859375 47.621094 C 81.847656 47.878906 81.851562 47.914062 81.941406 48.109375 C 82.058594 48.359375 82.230469 48.492188 82.519531 48.550781 C 82.90625 48.632812 83.191406 48.511719 83.417969 48.175781 C 83.53125 48.003906 83.539062 47.925781 83.433594 47.910156 C 83.386719 47.902344 83.335938 47.9375 83.261719 48.046875 C 82.980469 48.4375 82.546875 48.488281 82.230469 48.160156 C 82.050781 47.972656 82.011719 47.800781 82.082031 47.515625 L 82.125 47.339844 L 82.796875 47.328125 L 83.464844 47.324219 L 83.449219 47.179688 C 83.4375 47.097656 83.398438 46.992188 83.34375 46.921875 C 83.164062 46.683594 82.6875 46.546875 82.429688 46.664062 Z M 82.90625 46.859375 C 83.023438 46.90625 83.199219 47.054688 83.199219 47.101562 C 83.199219 47.117188 82.984375 47.128906 82.71875 47.128906 C 82.457031 47.128906 82.238281 47.121094 82.238281 47.113281 C 82.238281 47.046875 82.367188 46.917969 82.476562 46.867188 C 82.636719 46.792969 82.746094 46.789062 82.90625 46.859375 Z M 82.90625 46.859375 "/>
<path style=" stroke:none;fill-rule:nonzero;fill:rgb(0%,0%,0%);fill-opacity:1;" d="M 71.941406 48.304688 C 71.859375 48.390625 71.882812 48.484375 71.996094 48.527344 C 72.050781 48.546875 72.179688 48.453125 72.179688 48.394531 C 72.175781 48.292969 72.015625 48.234375 71.941406 48.304688 Z M 71.941406 48.304688 "/>
</g>
</svg>
