<?xml version="1.0" standalone="no"?>
<!DOCTYPE svg PUBLIC "-//W3C//DTD SVG 20010904//EN"
 "http://www.w3.org/TR/2001/REC-SVG-20010904/DTD/svg10.dtd">
<svg version="1.0" xmlns="http://www.w3.org/2000/svg"
 width="1000pt" height="1000pt" viewBox="0 0 1500 2000"
 preserveAspectRatio="xMidYMid meet">

<g transform="translate(0.00000,2480.000) "
fill="#000000" stroke="none">
<path fill="red"  d="M17752 15163 c-11 -32 -80 -231 -152 -443 -73 -212 -156 -455 -186
-541 -29 -86 -83 -243 -119 -349 -87 -256 -162 -475 -240 -700 -35 -102 -89
-258 -119 -347 -31 -90 -81 -236 -112 -325 -31 -90 -62 -181 -69 -203 -7 -22
-58 -172 -114 -334 -56 -161 -101 -295 -101 -297 0 -2 233 -3 517 -2 l517 3
83 285 c46 157 90 309 98 338 l16 52 502 -2 502 -3 21 -80 c26 -98 129 -470
150 -542 l15 -53 550 0 c302 0 549 3 549 8 0 13 -80 253 -450 1352 -405 1204
-651 1935 -711 2118 l-41 122 -543 0 -542 0 -21 -57z m648 -1448 c56 -192 124
-424 150 -515 l48 -165 -321 -3 c-176 -1 -322 -1 -324 2 -2 2 25 95 61 207 35
112 85 272 111 354 128 414 157 498 165 484 4 -7 54 -171 110 -364z"/>
<path fill="red" d="M8960 14770 l0 -410 720 -2 721 -3 -108 -145 c-59 -80 -153 -206
-208 -280 -54 -74 -176 -238 -270 -365 -94 -126 -239 -322 -323 -435 -83 -113
-220 -297 -304 -410 -84 -113 -183 -247 -220 -299 l-68 -93 0 -354 0 -354
1375 0 1375 0 0 410 0 410 -725 0 c-399 0 -725 2 -725 5 0 8 440 606 875 1190
45 61 140 189 211 285 71 96 177 240 237 319 l107 145 0 398 0 398 -1335 0
-1335 0 0 -410z"/>
<path fill="red"  d="M11960 13400 l0 -1780 520 0 520 0 0 1780 0 1780 -520 0 -520 0 0
-1780z"/>
<path fill="red"  d="M13370 13400 l0 -1780 425 0 425 0 2 978 3 977 409 -615 c225 -338
518 -778 650 -977 l241 -363 432 0 433 0 0 1780 0 1780 -435 0 -435 0 -2 -997
-3 -998 -35 55 c-19 30 -131 201 -249 380 -118 179 -242 368 -276 420 -102
156 -241 369 -436 665 -102 154 -213 324 -248 378 l-63 97 -419 0 -419 0 0
-1780z"/>
<path d="M20350 13400 l0 -1780 520 0 520 0 2 717 3 716 94 -159 c51 -87 115
-195 141 -239 48 -82 241 -409 477 -807 l135 -228 625 0 c532 0 623 2 616 14
-4 8 -54 85 -111 173 -57 87 -216 331 -353 543 -138 212 -276 426 -309 475
-354 547 -420 650 -417 660 3 6 96 139 208 295 111 157 324 456 472 665 149
209 318 448 377 530 59 83 115 162 124 178 l18 27 -598 0 -599 0 -16 -28 c-28
-46 -78 -126 -244 -387 -87 -137 -239 -378 -338 -535 -232 -369 -299 -471
-304 -467 -2 2 -3 322 -3 711 l0 706 -520 0 -520 0 0 -1780z"/>
<path fill="red" d="M23680 13400 l0 -1780 1185 0 1185 0 0 410 0 410 -665 0 -665 0 0
280 0 280 600 0 600 0 -2 413 -3 412 -597 3 -598 2 0 245 0 245 648 2 647 3 3
428 2 427 -1170 0 -1170 0 0 -1780z"/>
<path  d="M23246 10499 c-70 -17 -153 -70 -220 -139 -69 -72 -81 -102 -45 -120
20 -11 21 -17 18 -249 -2 -130 1 -242 5 -249 9 -16 53 -15 63 1 4 6 8 44 8 82
l0 70 33 3 c63 6 204 -53 326 -137 35 -24 55 -31 93 -31 58 0 113 30 113 61 0
19 -4 21 -32 15 -94 -20 -93 -20 -170 27 -40 25 -94 56 -120 68 -27 13 -48 25
-48 28 1 4 39 24 85 45 106 49 184 117 214 185 47 109 37 202 -28 265 -61 60
-206 97 -295 75z m179 -78 c92 -43 122 -114 90 -212 -41 -121 -192 -213 -402
-244 l-43 -7 0 170 0 169 48 46 c100 92 213 121 307 78z"/>
<path d="M18189 10486 c-103 -28 -166 -83 -213 -186 -58 -130 -56 -240 10
-370 58 -117 146 -179 264 -188 134 -9 255 47 311 144 48 85 17 115 -42 42
-78 -99 -130 -128 -224 -128 -120 1 -209 59 -261 172 -25 55 -29 74 -28 153 0
75 5 99 26 145 29 59 66 105 112 134 44 28 182 34 242 11 57 -22 117 -74 151
-132 16 -28 31 -43 42 -41 22 4 25 28 11 109 -11 66 -14 70 -35 65 -14 -4 -42
5 -79 25 -103 56 -194 70 -287 45z"/>
<path d="M24199 10488 c-12 -11 -13 -74 -9 -420 5 -394 6 -407 26 -435 17 -22
29 -28 60 -28 34 0 39 3 39 24 0 13 -9 29 -20 35 -11 6 -23 16 -27 21 -5 6 -8
187 -8 404 1 403 0 410 -36 411 -5 0 -17 -6 -25 -12z"/>
<path d="M24937 10493 c-4 -3 -7 -161 -7 -349 0 -218 -4 -345 -10 -349 -20
-13 -10 -45 16 -51 109 -28 341 71 412 176 83 123 58 321 -49 396 -33 23 -55
29 -108 32 -58 3 -73 0 -123 -27 l-58 -30 0 93 c0 58 -4 96 -12 104 -13 13
-50 16 -61 5z m303 -223 c63 -32 90 -81 90 -162 0 -84 -26 -144 -84 -195 -46
-40 -142 -87 -198 -97 l-38 -7 0 191 0 190 40 40 c60 60 124 74 190 40z"/>
<path d="M25451 10491 c-11 -7 -13 -79 -12 -400 1 -251 6 -403 13 -423 17 -53
37 -69 77 -66 30 3 36 7 36 27 0 13 -9 29 -20 35 -11 6 -23 16 -28 21 -4 6 -7
187 -6 404 1 319 -2 395 -13 402 -17 11 -29 11 -47 0z"/>
<path d="M24342 10471 c-8 -4 -12 -21 -10 -37 2 -23 8 -29 27 -29 31 0 50 28
35 53 -13 20 -34 25 -52 13z"/>
<path d="M20954 10436 c-3 -7 -4 -166 -2 -352 3 -339 3 -339 28 -389 30 -61
86 -95 126 -76 16 7 24 19 24 37 0 21 -8 29 -39 41 -22 9 -44 26 -50 40 -7 15
-11 113 -11 278 l0 255 74 0 c76 0 93 10 80 45 -5 11 -24 15 -81 15 l-76 0 7
46 c4 29 2 52 -5 60 -15 18 -68 18 -75 0z"/>
<path d="M22223 10433 c-4 -10 -6 -171 -3 -358 5 -340 5 -340 30 -385 40 -71
128 -102 145 -51 9 29 -5 52 -37 58 -56 11 -58 22 -58 310 l0 262 73 3 c70 3
72 4 75 31 l3 27 -77 0 -77 0 5 44 c3 24 1 51 -4 60 -12 22 -65 21 -75 -1z"/>
<path d="M19955 10350 c-4 -6 -6 -183 -6 -393 l0 -382 33 0 33 0 0 83 0 84 81
32 c44 17 101 44 126 59 66 39 143 127 164 189 25 71 23 164 -3 214 -25 49
-92 101 -141 110 -50 10 -137 -10 -184 -41 -20 -14 -40 -25 -43 -25 -2 0 -2
14 2 31 4 21 1 34 -8 40 -19 12 -46 11 -54 -1z m276 -70 c62 -17 109 -88 109
-165 0 -44 -45 -130 -94 -177 -40 -39 -152 -100 -208 -114 l-28 -6 0 180 0
180 41 41 c25 25 59 47 88 55 57 18 50 18 92 6z"/>
<path d="M21728 10353 c-16 -4 -18 -23 -19 -216 0 -117 -3 -206 -6 -199 -10
25 -43 11 -75 -32 -91 -121 -231 -136 -328 -35 -39 41 -54 90 -47 159 9 105
-3 100 232 100 l205 0 0 24 c0 92 -103 180 -225 193 -118 12 -231 -91 -271
-247 -26 -101 0 -216 63 -282 55 -58 173 -88 269 -68 50 11 65 20 111 66 29
30 56 67 60 82 6 20 9 4 13 -58 5 -80 6 -85 29 -88 13 -2 28 1 33 6 6 6 9 92
8 206 -1 217 3 234 62 280 77 58 185 55 233 -7 73 -97 72 -200 -4 -352 -37
-74 -41 -122 -9 -134 46 -17 78 11 57 50 -8 16 -2 37 32 107 40 81 43 92 44
172 0 67 -5 95 -22 133 -70 151 -225 189 -362 87 l-35 -25 7 24 c7 28 -8 62
-26 60 -7 -1 -20 -3 -29 -6z m-210 -78 c43 -18 82 -53 82 -72 0 -10 -31 -13
-145 -13 -101 0 -145 3 -145 11 0 18 67 77 92 82 47 9 80 7 116 -8z"/>
<path d="M18760 10335 c-93 -42 -159 -151 -167 -275 -6 -88 5 -138 45 -201 58
-90 193 -138 303 -106 120 35 185 120 196 257 11 126 -34 228 -130 294 -52 36
-63 40 -134 43 -56 2 -88 -1 -113 -12z m210 -83 c94 -57 129 -205 77 -332 -18
-44 -31 -60 -71 -85 -41 -25 -60 -30 -110 -29 -110 1 -190 66 -216 175 -28
117 53 263 166 299 43 14 104 3 154 -28z"/>
<path d="M19155 10344 c-11 -4 -10 -567 0 -585 8 -12 52 -12 60 2 4 6 8 97 9
202 1 188 2 193 26 225 54 73 157 107 220 75 93 -48 104 -142 40 -346 -22 -70
-37 -134 -34 -142 10 -26 41 -37 65 -24 17 8 20 17 16 42 -3 21 7 68 30 136
32 96 35 112 31 190 -3 47 -8 93 -12 101 -11 26 58 64 115 63 63 -1 95 -23
122 -81 34 -75 29 -166 -15 -277 -47 -118 -50 -131 -43 -154 8 -26 30 -33 60
-19 20 9 24 18 23 52 0 24 15 83 36 141 32 88 36 109 33 170 -10 189 -171 290
-328 207 l-54 -28 -39 25 c-28 18 -56 26 -101 29 -70 5 -108 -10 -164 -62
l-34 -31 6 36 c3 21 1 41 -6 48 -11 11 -42 14 -62 5z"/>
<path d="M20611 10335 c-145 -65 -226 -264 -172 -420 24 -71 90 -138 154 -157
66 -20 175 -15 222 9 58 30 125 117 125 162 0 37 -31 23 -94 -43 -88 -91 -158
-106 -257 -55 -76 38 -116 128 -99 218 17 88 -3 81 226 81 170 0 206 2 210 15
9 22 -16 87 -45 118 -62 68 -199 104 -270 72z m143 -59 c34 -14 86 -60 86 -76
0 -6 -60 -10 -145 -10 -101 0 -145 3 -145 11 0 18 67 77 92 82 46 9 79 7 112
-7z"/>
<path d="M23822 10335 c-68 -30 -111 -74 -149 -153 -35 -71 -38 -82 -37 -161
0 -64 6 -98 21 -132 26 -57 90 -113 151 -130 69 -21 169 -17 217 8 57 30 125
117 125 162 0 38 -26 27 -90 -39 -93 -95 -160 -110 -262 -59 -75 38 -115 128
-98 218 17 88 -3 81 226 81 170 0 206 2 210 15 9 22 -16 87 -45 118 -63 69
-198 105 -269 72z m135 -56 c29 -11 93 -67 93 -81 0 -4 -65 -8 -145 -8 -162 0
-174 6 -110 57 52 42 107 53 162 32z"/>
<path d="M24326 10342 c-3 -5 -6 -138 -6 -297 -2 -254 0 -289 14 -297 9 -5 23
-5 32 0 14 8 15 45 15 298 0 159 -1 292 -1 297 0 10 -48 9 -54 -1z"/>
<path d="M24640 10330 c-30 -10 -70 -18 -88 -17 -32 2 -35 -1 -58 -57 -39 -97
-28 -110 47 -52 58 43 116 65 192 71 52 5 58 4 37 -6 -175 -79 -210 -101 -269
-165 -33 -36 -65 -82 -72 -101 -17 -52 -7 -143 19 -180 32 -45 105 -78 172
-78 52 0 72 7 203 73 4 2 7 -12 7 -31 0 -37 14 -49 49 -40 21 5 21 10 21 260
0 289 -2 300 -70 327 -53 21 -122 20 -190 -4z m190 -269 l0 -159 -48 -30 c-69
-45 -115 -62 -167 -62 -101 0 -156 68 -132 161 13 54 102 146 177 184 50 25
144 62 163 64 4 1 7 -71 7 -158z"/>
<path d="M25730 10334 c-52 -23 -108 -82 -142 -149 -25 -49 -32 -76 -36 -147
-4 -81 -3 -91 26 -152 36 -77 90 -118 180 -137 121 -25 210 12 280 116 36 54
38 78 5 83 -15 2 -30 -9 -54 -43 -87 -121 -223 -136 -321 -35 -56 59 -69 112
-47 200 l14 55 209 3 209 2 -5 44 c-3 26 -16 58 -33 80 -56 74 -205 116 -285
80z m148 -60 c37 -15 92 -61 92 -76 0 -4 -67 -8 -150 -8 -82 0 -150 2 -150 5
0 20 40 61 75 76 49 23 84 24 133 3z"/>
<path d="M22456 9825 c-25 -26 -18 -55 17 -68 17 -6 57 23 57 41 -1 31 -51 49
-74 27z"/>
</g>
</svg>
